<?xml version="1.0" encoding="utf-8"?>
<!-- Generator: Adobe Illustrator 26.3.1, SVG Export Plug-In . SVG Version: 6.00 Build 0)  -->
<svg version="1.1" id="Layer_1" xmlns="http://www.w3.org/2000/svg" xmlns:xlink="http://www.w3.org/1999/xlink" x="0px" y="0px"
	 viewBox="0 0 48 48" style="enable-background:new 0 0 48 48;" xml:space="preserve">
<style type="text/css">
	.st0{fill:#FFFFFF;}
</style>
<path class="st0" d="M18.6,11.2h10.7c0-1.5-0.5-2.8-1.5-3.8S25.6,5.9,24,5.9c-1.6,0-2.9,0.5-3.9,1.5S18.6,9.7,18.6,11.2z M38.5,46.3
	H9.4c-1.3,0-2.4-0.5-3.3-1.4s-1.4-2.1-1.4-3.3V16c0-1.3,0.5-2.4,1.4-3.4c0.9-0.9,2-1.4,3.3-1.4h4.5c0-2.8,0.9-5.1,2.8-7.1s4.2-3,7-3
	s5.2,1,7.2,3s3,4.3,3,7.1h4.5c1.3,0,2.4,0.5,3.3,1.4c0.9,0.9,1.4,2.1,1.4,3.4v25.5c0,1.3-0.5,2.4-1.4,3.3S39.8,46.3,38.5,46.3z"/>
</svg>
